<svg width="253" height="21" viewBox="0 0 253 21" fill="none" xmlns="http://www.w3.org/2000/svg">
<path d="M5.70219 1.96625L8.45497 1.96625V10.4212H0.674152V7.66843H3.75568L0 3.91275V1.96625H1.94651L5.70219 5.72192V1.96625Z" fill="#FF0082"/>
<path d="M0 12.1147C0.868863 12.8189 1.88599 13.321 2.97759 13.5817C4.22018 13.8786 5.51802 13.8529 6.74788 13.507C7.97774 13.1612 9.09878 12.5067 10.0045 11.6058C10.9103 10.7048 11.5707 9.58728 11.9231 8.35929C12.2755 7.13129 12.3081 5.8336 12.0179 4.58945C11.7974 3.64438 11.3963 2.75404 10.8395 1.96625H14.8449C15.0958 2.5537 15.2961 3.16398 15.4423 3.79065C15.8687 5.61851 15.8207 7.52503 15.303 9.32916C14.7853 11.1333 13.815 12.7751 12.4843 14.0988C11.1536 15.4225 9.5066 16.384 7.69974 16.8921C6.72949 17.1649 5.73044 17.3021 4.73062 17.3032C4.7229 17.3032 4.71517 17.3032 4.70744 17.3032C3.85305 17.3023 2.99826 17.2019 2.16056 17.0018C1.41293 16.8232 0.689086 16.5675 0 16.2407L0 12.1147Z" fill="#FF0082"/>
<path d="M25.0959 2.54829L27.5498 0H24.7939L22.6609 2.54829H25.0959ZM20.056 16.8942H27.7575V14.6668H22.7364V11.2691H27.0024V9.0417H22.7364V5.90825H27.7575V3.68086H20.056V16.8942Z" fill="black"/>
<path d="M28.6492 12.1374C28.6492 14.9122 30.4802 17.2717 33.4815 17.2717C34.7651 17.2717 35.69 16.8753 36.4262 16.1391V16.8942H38.8424V2.73705H36.4262V8.13564C35.69 7.39947 34.7651 7.00307 33.4815 7.00307C30.4802 7.00307 28.6492 9.36259 28.6492 12.1374ZM31.1597 12.1374C31.1597 10.4763 32.1979 9.26821 33.8213 9.26821C34.8972 9.26821 35.7844 9.72124 36.4262 10.5895V13.6852C35.7844 14.5535 34.8972 15.0066 33.8213 15.0066C32.1979 15.0066 31.1597 13.7985 31.1597 12.1374Z" fill="black"/>
<path d="M46.945 12.7792C46.945 14.1571 46.2277 15.0066 44.9252 15.0066C43.6039 15.0066 42.8866 14.1571 42.8866 12.7792V7.38059H40.4704V12.6659C40.4704 15.5162 42.1127 17.2717 44.9063 17.2717C47.7 17.2717 49.3611 15.5162 49.3611 12.6659V7.38059H46.945V12.7792Z" fill="black"/>
<path d="M57.3757 14.7612C54.884 14.7612 53.1097 12.8169 53.1097 10.2875C53.1097 7.75812 54.884 5.81387 57.3757 5.81387C58.8858 5.81387 60.075 6.55004 60.83 7.62598L62.9442 5.98376C61.7361 4.37928 59.773 3.30333 57.3757 3.30333C53.2041 3.30333 50.3537 6.51229 50.3537 10.2875C50.3537 14.0628 53.2041 17.2717 57.3757 17.2717C59.773 17.2717 61.7361 16.2147 62.9442 14.5724L60.83 12.9491C60.075 14.025 58.8858 14.7612 57.3757 14.7612Z" fill="black"/>
<path d="M68.2572 7.00307C65.1615 7.00307 63.0474 9.28709 63.0474 12.1374C63.0474 14.9877 65.1615 17.2717 68.2572 17.2717C71.3529 17.2717 73.4671 14.9877 73.4671 12.1374C73.4671 9.28709 71.3529 7.00307 68.2572 7.00307ZM68.295 15.0066C66.7094 15.0066 65.5391 13.7985 65.5391 12.1374C65.5391 10.4763 66.7094 9.26821 68.295 9.26821C69.824 9.26821 70.9754 10.4763 70.9754 12.1374C70.9754 13.7796 69.824 15.0066 68.295 15.0066Z" fill="black"/>
<path d="M74.6154 16.8942H77.0127V10.6839C77.3713 10.0799 78.0131 9.26821 79.2212 9.26821C80.3915 9.26821 81.1088 10.061 81.1088 11.3257V16.8942H83.525V11.2313C83.525 8.41878 81.8828 7.00307 79.8252 7.00307C78.5605 7.00307 77.6734 7.49385 77.0127 8.13564V7.38059H74.6154V16.8942Z" fill="black"/>
<path d="M85.2089 16.8942H87.6062V10.6839C87.9649 10.0799 88.6067 9.26821 89.8147 9.26821C90.9851 9.26821 91.7024 10.061 91.7024 11.3257V16.8942H94.1185V11.2313C94.1185 8.41878 92.4763 7.00307 90.4188 7.00307C89.1541 7.00307 88.2669 7.49385 87.6062 8.13564V7.38059H85.2089V16.8942Z" fill="black"/>
<path d="M104.561 15.3464L102.843 13.9873C102.334 14.6668 101.428 15.1198 100.389 15.1198C98.8982 15.1198 97.8034 14.4025 97.5768 12.6282H104.24C104.316 12.3073 104.391 11.8165 104.391 11.288C104.391 8.79631 102.655 7.00307 100.012 7.00307C96.8973 7.00307 95.1229 9.32484 95.1229 12.1374C95.1229 14.9122 97.0294 17.2717 100.408 17.2717C102.202 17.2717 103.674 16.5356 104.561 15.3464ZM99.9552 8.96619C101.295 8.96619 101.994 9.92888 102.032 10.8916H97.6523C97.9166 9.64574 98.7283 8.96619 99.9552 8.96619Z" fill="black"/>
<path d="M110.19 15.0066C108.585 15.0066 107.434 13.8174 107.434 12.1374C107.434 10.4763 108.585 9.26821 110.152 9.26821C111.134 9.26821 111.889 9.70237 112.342 10.363L114.21 8.92844C113.323 7.75812 111.926 7.00307 110.19 7.00307C106.905 7.00307 104.942 9.36259 104.942 12.1374C104.942 14.9122 106.905 17.2717 110.19 17.2717C111.926 17.2717 113.323 16.5167 114.21 15.3464L112.342 13.9118C111.889 14.5724 111.134 15.0066 110.19 15.0066Z" fill="black"/>
<path d="M115.658 13.421C115.658 15.7428 116.791 17.083 119.169 17.083C119.962 17.083 120.528 16.9886 121 16.7809V14.6857C120.679 14.8178 120.245 14.8933 119.584 14.8933C118.64 14.8933 118.074 14.478 118.074 13.421V9.53248H120.981V7.38059H118.074V5.00219H115.658V7.38059H113.884V9.53248H115.658V13.421Z" fill="black"/>
<path d="M135 0V20.5" stroke="black"/>
<path d="M173.996 17.0213V2.7234H179.823C180.712 2.7234 181.499 2.90042 182.183 3.25447C182.88 3.60851 183.421 4.11234 183.804 4.76596C184.201 5.40596 184.399 6.17532 184.399 7.07404V7.33957C184.399 8.22468 184.194 8.99404 183.783 9.64766C183.387 10.3013 182.839 10.8051 182.142 11.1591C181.458 11.5132 180.685 11.6902 179.823 11.6902H176.499V17.0213H173.996ZM176.499 9.42298H179.577C180.275 9.42298 180.835 9.23915 181.259 8.87149C181.684 8.49021 181.896 7.96596 181.896 7.29872V7.09447C181.896 6.44085 181.684 5.93021 181.259 5.56255C180.835 5.18128 180.275 4.99064 179.577 4.99064H176.499V9.42298Z" fill="black"/>
<path d="M185.21 17.0213V6.91064H187.549V8.07489H187.898C188.062 7.66638 188.315 7.36681 188.657 7.17617C189.013 6.97191 189.437 6.86979 189.93 6.86979H191.161V8.99404H189.888C189.218 8.99404 188.664 9.17787 188.226 9.54553C187.802 9.89957 187.59 10.4511 187.59 11.2V17.0213H185.21Z" fill="black"/>
<path d="M196.455 17.3072C195.443 17.3072 194.533 17.103 193.726 16.6945C192.933 16.286 192.303 15.6936 191.838 14.9174C191.387 14.1413 191.161 13.2085 191.161 12.1191V11.8128C191.161 10.737 191.387 9.81106 191.838 9.03489C192.303 8.25872 192.933 7.66638 193.726 7.25787C194.533 6.83574 195.443 6.62468 196.455 6.62468C197.467 6.62468 198.37 6.83574 199.163 7.25787C199.971 7.66638 200.6 8.25872 201.051 9.03489C201.516 9.81106 201.749 10.737 201.749 11.8128V12.1191C201.749 13.2085 201.516 14.1413 201.051 14.9174C200.6 15.6936 199.971 16.286 199.163 16.6945C198.37 17.103 197.467 17.3072 196.455 17.3072ZM196.455 15.183C197.303 15.183 197.994 14.9106 198.527 14.366C199.075 13.8213 199.348 13.0587 199.348 12.0783V11.874C199.348 10.88 199.075 10.1106 198.527 9.56596C197.994 9.02128 197.303 8.74894 196.455 8.74894C195.607 8.74894 194.909 9.02128 194.362 9.56596C193.815 10.1106 193.541 10.88 193.541 11.874V12.0783C193.541 13.0587 193.815 13.8213 194.362 14.366C194.909 14.9106 195.607 15.183 196.455 15.183Z" fill="black"/>
<path d="M203.006 17.0213V6.91064H205.345V8.32H205.694C205.872 7.93872 206.194 7.58468 206.659 7.25787C207.124 6.91745 207.828 6.74723 208.772 6.74723C209.552 6.74723 210.236 6.92425 210.824 7.2783C211.426 7.63234 211.891 8.12255 212.219 8.74894C212.561 9.37532 212.732 10.1174 212.732 10.9753V17.0213H210.352V11.1591C210.352 10.3557 210.147 9.7566 209.737 9.3617C209.34 8.96681 208.779 8.76936 208.054 8.76936C207.22 8.76936 206.563 9.0417 206.084 9.58638C205.619 10.1311 205.386 10.9004 205.386 11.8945V17.0213H203.006Z" fill="black"/>
<path d="M219.201 17.3072C218.188 17.3072 217.279 17.103 216.472 16.6945C215.678 16.286 215.049 15.6936 214.584 14.9174C214.132 14.1413 213.907 13.2085 213.907 12.1191V11.8128C213.907 10.737 214.132 9.81106 214.584 9.03489C215.049 8.25872 215.678 7.66638 216.472 7.25787C217.279 6.83574 218.188 6.62468 219.201 6.62468C220.213 6.62468 221.116 6.83574 221.909 7.25787C222.716 7.66638 223.345 8.25872 223.797 9.03489C224.262 9.81106 224.494 10.737 224.494 11.8128V12.1191C224.494 13.2085 224.262 14.1413 223.797 14.9174C223.345 15.6936 222.716 16.286 221.909 16.6945C221.116 17.103 220.213 17.3072 219.201 17.3072ZM219.201 15.183C220.049 15.183 220.739 14.9106 221.273 14.366C221.82 13.8213 222.094 13.0587 222.094 12.0783V11.874C222.094 10.88 221.82 10.1106 221.273 9.56596C220.739 9.02128 220.049 8.74894 219.201 8.74894C218.352 8.74894 217.655 9.02128 217.108 9.56596C216.56 10.1106 216.287 10.88 216.287 11.874V12.0783C216.287 13.0587 216.56 13.8213 217.108 14.366C217.655 14.9106 218.352 15.183 219.201 15.183Z" fill="black"/>
<path d="M229.249 17.0213C228.592 17.0213 228.065 16.8238 227.669 16.4289C227.272 16.034 227.074 15.503 227.074 14.8357V8.89191H224.447V6.91064H227.074V3.6834H229.474V6.91064H232.368V8.89191H229.474V14.4272C229.474 14.8357 229.666 15.04 230.049 15.04H232.08V17.0213H229.249Z" fill="black"/>
<path d="M237.794 17.3072C236.782 17.3072 235.886 17.0962 235.106 16.674C234.34 16.2383 233.745 15.6323 233.321 14.8562C232.897 14.0664 232.685 13.1472 232.685 12.0987V11.8536C232.685 10.7915 232.897 9.87234 233.321 9.09617C233.745 8.30638 234.333 7.70043 235.085 7.2783C235.851 6.84255 236.741 6.62468 237.753 6.62468C238.738 6.62468 239.593 6.84255 240.318 7.2783C241.056 7.71404 241.631 8.32 242.041 9.09617C242.452 9.87234 242.657 10.7779 242.657 11.8128V12.6502H235.106C235.133 13.4264 235.407 14.0528 235.927 14.5294C236.46 14.9923 237.11 15.2238 237.876 15.2238C238.628 15.2238 239.182 15.0604 239.538 14.7336C239.907 14.4068 240.188 14.0323 240.379 13.6102L242.349 14.6315C242.158 14.9991 241.877 15.394 241.508 15.8162C241.152 16.2247 240.673 16.5787 240.071 16.8783C239.483 17.1643 238.724 17.3072 237.794 17.3072ZM235.126 10.8528H240.236C240.181 10.1991 239.928 9.6817 239.476 9.30043C239.025 8.90553 238.444 8.70809 237.732 8.70809C236.994 8.70809 236.399 8.90553 235.947 9.30043C235.496 9.6817 235.222 10.1991 235.126 10.8528Z" fill="black"/>
<path d="M247.583 14.1413V10.9549H244.423V8.78979H247.583V5.6034H249.84V8.78979H253V10.9549H249.84V14.1413H247.583Z" fill="black"/>
<path fill-rule="evenodd" clip-rule="evenodd" d="M153.427 1.84948C153.029 1.88664 152.878 2.00756 152.82 2.08208C152.762 2.1561 152.683 2.33021 152.749 2.71918C152.815 3.11014 153.015 3.62322 153.383 4.2299C153.663 4.69267 154.026 5.18525 154.462 5.6894C155.451 5.70573 156.507 5.80488 157.588 5.99141C159.722 6.35997 161.649 7.01692 163.084 7.824C162.324 6.79223 161.215 5.66759 159.842 4.62246C158.147 3.33231 156.437 2.45875 155.068 2.06851C154.381 1.87257 153.827 1.81218 153.427 1.84948ZM163.831 10.8547C163.794 10.7821 163.743 10.699 163.671 10.6048C163.429 10.2885 163.01 9.92602 162.399 9.55746C161.184 8.82347 159.377 8.167 157.27 7.80325C157.021 7.76039 156.776 7.72275 156.533 7.69016C156.717 7.84128 156.907 7.99129 157.102 8.13969C158.797 9.42984 160.507 10.3034 161.876 10.6936C162.563 10.8896 163.116 10.95 163.516 10.9127C163.645 10.9006 163.749 10.8798 163.831 10.8547ZM152.209 5.80999C152.059 5.59709 151.92 5.38586 151.794 5.17719C151.356 4.45401 151.038 3.71912 150.92 3.02281C150.803 2.3245 150.875 1.57203 151.352 0.958968C151.828 0.346398 152.543 0.0847726 153.254 0.0184889C153.963 -0.0476516 154.762 0.0676155 155.58 0.300997C157.223 0.769393 159.139 1.76911 160.97 3.16337C162.802 4.55758 164.271 6.13348 165.15 7.58496C165.217 7.69543 165.281 7.80618 165.342 7.91702C165.57 7.48146 165.799 7.08237 166.026 6.72714C166.401 6.13774 166.796 5.62476 167.194 5.26891C167.393 5.09127 167.628 4.91987 167.897 4.81109C168.172 4.69943 168.535 4.63518 168.915 4.76624C169.297 4.8974 169.541 5.17064 169.688 5.42824C169.831 5.67896 169.908 5.95853 169.952 6.22002C170.042 6.74385 170.03 7.38881 169.954 8.08157C169.803 9.48214 169.368 11.2909 168.701 13.1902C168.034 15.0895 167.24 16.7746 166.481 17.9661C166.106 18.5555 165.711 19.0685 165.313 19.4243C165.114 19.602 164.879 19.7734 164.61 19.8821C164.335 19.9938 163.972 20.0581 163.591 19.927C163.21 19.7958 162.966 19.5226 162.819 19.265C162.676 19.0143 162.599 18.7347 162.554 18.4732C162.465 17.9494 162.477 17.3044 162.552 16.6117C162.64 15.8058 162.821 14.8648 163.086 13.8492C162.832 13.9255 162.568 13.9909 162.296 14.0462C160.621 14.3862 158.456 14.3811 156.179 13.9881C153.903 13.5951 151.863 12.8742 150.404 11.993C149.676 11.554 149.05 11.0495 148.62 10.4871C148.188 9.92342 147.899 9.22376 148.033 8.46109C148.168 7.69865 148.679 7.13769 149.278 6.75222C149.875 6.36762 150.636 6.10274 151.471 5.93334C151.707 5.88529 151.954 5.84414 152.209 5.80999ZM161.078 12.3753C159.795 12.5189 158.206 12.4712 156.497 12.1762C154.39 11.8125 152.583 11.156 151.367 10.422C150.757 10.0535 150.338 9.69099 150.096 9.3747C149.855 9.05981 149.843 8.86927 149.859 8.77798C149.876 8.68648 149.952 8.5106 150.287 8.2948C150.623 8.07813 151.142 7.87731 151.842 7.73505C152.373 7.62726 152.981 7.55871 153.646 7.53518C154.325 8.24207 155.109 8.94067 155.973 9.59878C157.7 10.9131 159.501 11.8768 161.078 12.3753ZM165.753 11.5659C165.687 11.7439 165.621 11.9248 165.556 12.1084C164.921 13.9158 164.528 15.584 164.396 16.8083C164.354 17.1924 164.34 17.5131 164.347 17.7692C164.514 17.5723 164.705 17.3117 164.914 16.9837C165.578 15.9419 166.315 14.3922 166.95 12.5848C167.586 10.7774 167.978 9.10927 168.111 7.88496C168.153 7.5008 168.167 7.18012 168.159 6.92399C167.993 7.12089 167.802 7.38157 167.593 7.70954C167.083 8.5102 166.529 9.61074 166.012 10.8977C165.961 11.1283 165.878 11.3533 165.753 11.5659Z" fill="black"/>
</svg>
