<svg width="121" height="18" viewBox="0 0 121 18" fill="none" xmlns="http://www.w3.org/2000/svg">
<path d="M5.70219 1.96626L8.45497 1.96626V10.4212H0.674152V7.66844H3.75568L0 3.91276V1.96626H1.94651L5.70219 5.72193V1.96626Z" fill="white"/>
<path d="M0 12.1147C0.868863 12.8189 1.88599 13.321 2.97759 13.5817C4.22018 13.8786 5.51803 13.8529 6.74788 13.507C7.97774 13.1612 9.09878 12.5067 10.0045 11.6058C10.9103 10.7048 11.5707 9.58729 11.9231 8.35929C12.2755 7.1313 12.3081 5.83361 12.0179 4.58946C11.7974 3.64439 11.3963 2.75405 10.8395 1.96626H14.8449C15.0958 2.55371 15.2961 3.16399 15.4423 3.79065C15.8687 5.61852 15.8207 7.52504 15.303 9.32917C14.7853 11.1333 13.815 12.7751 12.4843 14.0988C11.1536 15.4225 9.5066 16.384 7.69974 16.8921C6.72949 17.1649 5.73044 17.3021 4.73062 17.3032C4.7229 17.3032 4.71517 17.3032 4.70744 17.3032C3.85305 17.3023 2.99826 17.2019 2.16056 17.0018C1.41293 16.8232 0.689086 16.5676 0 16.2407V12.1147Z" fill="white"/>
<path d="M25.0959 2.54829L27.5498 0H24.7939L22.6609 2.54829H25.0959ZM20.056 16.8942H27.7575V14.6668H22.7364V11.2691H27.0024V9.0417H22.7364V5.90825H27.7575V3.68086H20.056V16.8942Z" fill="white"/>
<path d="M28.6492 12.1374C28.6492 14.9122 30.4802 17.2717 33.4815 17.2717C34.7651 17.2717 35.69 16.8753 36.4262 16.1392V16.8942H38.8424V2.73705H36.4262V8.13564C35.69 7.39947 34.7651 7.00307 33.4815 7.00307C30.4802 7.00307 28.6492 9.3626 28.6492 12.1374ZM31.1598 12.1374C31.1598 10.4763 32.1979 9.26821 33.8213 9.26821C34.8972 9.26821 35.7844 9.72124 36.4262 10.5895V13.6852C35.7844 14.5535 34.8972 15.0066 33.8213 15.0066C32.1979 15.0066 31.1598 13.7985 31.1598 12.1374Z" fill="white"/>
<path d="M46.945 12.7792C46.945 14.1571 46.2277 15.0066 44.9252 15.0066C43.6039 15.0066 42.8866 14.1571 42.8866 12.7792V7.38059H40.4704V12.6659C40.4704 15.5162 42.1127 17.2717 44.9063 17.2717C47.7 17.2717 49.3611 15.5162 49.3611 12.6659V7.38059H46.945V12.7792Z" fill="white"/>
<path d="M57.3757 14.7612C54.884 14.7612 53.1097 12.8169 53.1097 10.2875C53.1097 7.75812 54.884 5.81387 57.3757 5.81387C58.8858 5.81387 60.075 6.55004 60.83 7.62598L62.9442 5.98376C61.7361 4.37928 59.773 3.30333 57.3757 3.30333C53.2041 3.30333 50.3538 6.51229 50.3538 10.2875C50.3538 14.0628 53.2041 17.2717 57.3757 17.2717C59.773 17.2717 61.7361 16.2147 62.9442 14.5724L60.83 12.9491C60.075 14.025 58.8858 14.7612 57.3757 14.7612Z" fill="white"/>
<path d="M68.2572 7.00307C65.1615 7.00307 63.0474 9.28709 63.0474 12.1374C63.0474 14.9877 65.1615 17.2717 68.2572 17.2717C71.3529 17.2717 73.4671 14.9877 73.4671 12.1374C73.4671 9.28709 71.3529 7.00307 68.2572 7.00307ZM68.295 15.0066C66.7094 15.0066 65.5391 13.7985 65.5391 12.1374C65.5391 10.4763 66.7094 9.26821 68.295 9.26821C69.824 9.26821 70.9754 10.4763 70.9754 12.1374C70.9754 13.7796 69.824 15.0066 68.295 15.0066Z" fill="white"/>
<path d="M74.6154 16.8942H77.0127V10.6839C77.3714 10.0799 78.0131 9.26821 79.2212 9.26821C80.3915 9.26821 81.1088 10.061 81.1088 11.3257V16.8942H83.525V11.2313C83.525 8.41878 81.8828 7.00307 79.8253 7.00307C78.5606 7.00307 77.6734 7.49385 77.0127 8.13564V7.38059H74.6154V16.8942Z" fill="white"/>
<path d="M85.209 16.8942H87.6062V10.6839C87.9649 10.0799 88.6067 9.26821 89.8148 9.26821C90.9851 9.26821 91.7024 10.061 91.7024 11.3257V16.8942H94.1185V11.2313C94.1185 8.41878 92.4763 7.00307 90.4188 7.00307C89.1541 7.00307 88.2669 7.49385 87.6062 8.13564V7.38059H85.209V16.8942Z" fill="white"/>
<path d="M104.561 15.3463L102.843 13.9873C102.334 14.6668 101.428 15.1198 100.389 15.1198C98.8982 15.1198 97.8034 14.4025 97.5769 12.6282H104.24C104.316 12.3073 104.391 11.8165 104.391 11.288C104.391 8.79631 102.655 7.00307 100.012 7.00307C96.8973 7.00307 95.1229 9.32484 95.1229 12.1374C95.1229 14.9122 97.0294 17.2717 100.408 17.2717C102.202 17.2717 103.674 16.5356 104.561 15.3463ZM99.9552 8.9662C101.295 8.9662 101.994 9.92888 102.032 10.8916H97.6524C97.9166 9.64574 98.7283 8.9662 99.9552 8.9662Z" fill="white"/>
<path d="M110.19 15.0066C108.585 15.0066 107.434 13.8174 107.434 12.1374C107.434 10.4763 108.585 9.26821 110.152 9.26821C111.134 9.26821 111.889 9.70237 112.342 10.363L114.21 8.92844C113.323 7.75812 111.926 7.00307 110.19 7.00307C106.905 7.00307 104.942 9.3626 104.942 12.1374C104.942 14.9122 106.905 17.2717 110.19 17.2717C111.926 17.2717 113.323 16.5167 114.21 15.3463L112.342 13.9118C111.889 14.5724 111.134 15.0066 110.19 15.0066Z" fill="white"/>
<path d="M115.658 13.421C115.658 15.7428 116.791 17.083 119.169 17.083C119.962 17.083 120.528 16.9886 121 16.7809V14.6857C120.679 14.8178 120.245 14.8933 119.584 14.8933C118.64 14.8933 118.074 14.478 118.074 13.421V9.53248H120.981V7.38059H118.074V5.00219H115.658V7.38059H113.884V9.53248H115.658V13.421Z" fill="white"/>
</svg>
