<svg width="116" height="22" viewBox="0 0 116 22" fill="none" xmlns="http://www.w3.org/2000/svg">
<path d="M28.5305 18.7234V2.99574H34.9261C35.9019 2.99574 36.7652 3.19047 37.5158 3.57991C38.2815 3.96936 38.8745 4.52357 39.2949 5.24255C39.7303 5.94655 39.9479 6.79285 39.9479 7.78145V8.07353C39.9479 9.04715 39.7227 9.89345 39.2724 10.6124C38.837 11.3314 38.2365 11.8856 37.4708 12.2751C36.7201 12.6645 35.8719 12.8592 34.9261 12.8592H31.2779V18.7234H28.5305ZM31.2779 10.3653H34.6558C35.4215 10.3653 36.037 10.1631 36.5024 9.75864C36.9678 9.33923 37.2006 8.76255 37.2006 8.0286V7.80391C37.2006 7.08494 36.9678 6.52323 36.5024 6.11881C36.037 5.6994 35.4215 5.4897 34.6558 5.4897H31.2779V10.3653Z" fill="black" fill-opacity="0.25"/>
<path d="M40.8383 18.7234V7.6017H43.4056V8.88238H43.7884C43.9686 8.43302 44.2463 8.10349 44.6216 7.89379C45.012 7.66911 45.4774 7.55677 46.0179 7.55677H47.369V9.89345H45.9728C45.2372 9.89345 44.6292 10.0957 44.1487 10.5001C43.6833 10.8895 43.4506 11.4962 43.4506 12.32V18.7234H40.8383Z" fill="black" fill-opacity="0.25"/>
<path d="M53.1796 19.038C52.0687 19.038 51.0703 18.8133 50.1845 18.3639C49.3138 17.9146 48.6232 17.263 48.1127 16.4092C47.6173 15.5554 47.3696 14.5294 47.3696 13.3311V12.994C47.3696 11.8107 47.6173 10.7922 48.1127 9.93838C48.6232 9.0846 49.3138 8.43302 50.1845 7.98366C51.0703 7.51932 52.0687 7.28715 53.1796 7.28715C54.2906 7.28715 55.2815 7.51932 56.1522 7.98366C57.038 8.43302 57.7286 9.0846 58.224 9.93838C58.7345 10.7922 58.9897 11.8107 58.9897 12.994V13.3311C58.9897 14.5294 58.7345 15.5554 58.224 16.4092C57.7286 17.263 57.038 17.9146 56.1522 18.3639C55.2815 18.8133 54.2906 19.038 53.1796 19.038ZM53.1796 16.7013C54.1104 16.7013 54.8686 16.4017 55.4541 15.8026C56.0546 15.2034 56.3549 14.3646 56.3549 13.2861V13.0614C56.3549 11.968 56.0546 11.1217 55.4541 10.5226C54.8686 9.9234 54.1104 9.62383 53.1796 9.62383C52.2488 9.62383 51.4832 9.9234 50.8826 10.5226C50.2821 11.1217 49.9818 11.968 49.9818 13.0614V13.2861C49.9818 14.3646 50.2821 15.2034 50.8826 15.8026C51.4832 16.4017 52.2488 16.7013 53.1796 16.7013Z" fill="black" fill-opacity="0.25"/>
<path d="M60.3697 18.7234V7.6017H62.937V9.152H63.3198C63.515 8.7326 63.8678 8.34315 64.3782 7.98366C64.8887 7.60919 65.6618 7.42196 66.6977 7.42196C67.5535 7.42196 68.3041 7.61668 68.9497 8.00613C69.6103 8.39557 70.1207 8.93481 70.481 9.62383C70.8564 10.3129 71.044 11.1292 71.044 12.0729V18.7234H68.4318V12.2751C68.4318 11.3913 68.2066 10.7323 67.7562 10.2979C67.3208 9.86349 66.7052 9.6463 65.9096 9.6463C64.9938 9.6463 64.2731 9.94587 63.7477 10.545C63.2372 11.1442 62.982 11.9905 62.982 13.0839V18.7234H60.3697Z" fill="black" fill-opacity="0.25"/>
<path d="M78.143 19.038C77.032 19.038 76.0337 18.8133 75.1479 18.3639C74.2771 17.9146 73.5865 17.263 73.0761 16.4092C72.5806 15.5554 72.3329 14.5294 72.3329 13.3311V12.994C72.3329 11.8107 72.5806 10.7922 73.0761 9.93838C73.5865 9.0846 74.2771 8.43302 75.1479 7.98366C76.0337 7.51932 77.032 7.28715 78.143 7.28715C79.254 7.28715 80.2448 7.51932 81.1156 7.98366C82.0014 8.43302 82.692 9.0846 83.1874 9.93838C83.6978 10.7922 83.953 11.8107 83.953 12.994V13.3311C83.953 14.5294 83.6978 15.5554 83.1874 16.4092C82.692 17.263 82.0014 17.9146 81.1156 18.3639C80.2448 18.8133 79.254 19.038 78.143 19.038ZM78.143 16.7013C79.0738 16.7013 79.832 16.4017 80.4175 15.8026C81.018 15.2034 81.3183 14.3646 81.3183 13.2861V13.0614C81.3183 11.968 81.018 11.1217 80.4175 10.5226C79.832 9.9234 79.0738 9.62383 78.143 9.62383C77.2122 9.62383 76.4465 9.9234 75.846 10.5226C75.2455 11.1217 74.9452 11.968 74.9452 13.0614V13.2861C74.9452 14.3646 75.2455 15.2034 75.846 15.8026C76.4465 16.4017 77.2122 16.7013 78.143 16.7013Z" fill="black" fill-opacity="0.25"/>
<path d="M89.1709 18.7234C88.4503 18.7234 87.8723 18.5062 87.4369 18.0718C87.0015 17.6374 86.7838 17.0533 86.7838 16.3193V9.78111H83.9013V7.6017H86.7838V4.05174H89.4186V7.6017H92.5939V9.78111H89.4186V15.87C89.4186 16.3193 89.6288 16.544 90.0492 16.544H92.2786V18.7234H89.1709Z" fill="black" fill-opacity="0.25"/>
<path d="M98.5493 19.038C97.4383 19.038 96.455 18.8058 95.5992 18.3414C94.7585 17.8621 94.1054 17.1956 93.64 16.3418C93.1746 15.473 92.9419 14.462 92.9419 13.3086V13.039C92.9419 11.8706 93.1746 10.8596 93.64 10.0058C94.1054 9.13702 94.751 8.47047 95.5767 8.00613C96.4174 7.52681 97.3933 7.28715 98.5042 7.28715C99.5852 7.28715 100.524 7.52681 101.319 8.00613C102.13 8.48545 102.76 9.152 103.211 10.0058C103.661 10.8596 103.886 11.8557 103.886 12.994V13.9152H95.5992C95.6292 14.769 95.9295 15.458 96.5 15.9823C97.0855 16.4916 97.7986 16.7462 98.6394 16.7462C99.4651 16.7462 100.073 16.5665 100.463 16.207C100.869 15.8475 101.177 15.4356 101.387 14.9712L103.549 16.0946C103.338 16.4991 103.031 16.9334 102.625 17.3978C102.235 17.8471 101.71 18.2366 101.049 18.5661C100.403 18.8807 99.5702 19.038 98.5493 19.038ZM95.6217 11.938H101.229C101.169 11.2191 100.891 10.6499 100.396 10.2305C99.9005 9.79609 99.2624 9.57889 98.4817 9.57889C97.671 9.57889 97.018 9.79609 96.5225 10.2305C96.0271 10.6499 95.7268 11.2191 95.6217 11.938Z" fill="black" fill-opacity="0.25"/>
<path d="M109.293 15.5554V12.0504H105.825V9.66877H109.293V6.16374H111.77V9.66877H115.238V12.0504H111.77V15.5554H109.293Z" fill="black" fill-opacity="0.25"/>
<path fill-rule="evenodd" clip-rule="evenodd" d="M5.9565 2.03443C5.5192 2.07531 5.3533 2.20832 5.28972 2.29029C5.22656 2.37171 5.1399 2.56324 5.21193 2.9911C5.28433 3.42116 5.50443 3.98554 5.90779 4.65288C6.21547 5.16194 6.61329 5.70377 7.0916 6.25834C8.17805 6.27631 9.33652 6.38537 10.5224 6.59055C12.8655 6.99597 14.9799 7.71861 16.555 8.6064C15.7203 7.47145 14.5037 6.23435 12.9967 5.08471C11.1363 3.66554 9.25922 2.70462 7.75711 2.27536C7.00291 2.05983 6.39548 1.9934 5.9565 2.03443ZM17.3745 11.9401C17.3345 11.8603 17.2779 11.7689 17.1987 11.6653C16.9329 11.3174 16.4733 10.9186 15.8033 10.5132C14.4691 9.70582 12.486 8.9837 10.1736 8.58357C9.90108 8.53643 9.63139 8.49503 9.3651 8.45918C9.56712 8.62541 9.77525 8.79041 9.98925 8.95366C11.8496 10.3728 13.7267 11.3337 15.2288 11.763C15.983 11.9785 16.5904 12.045 17.0294 12.0039C17.171 11.9907 17.2841 11.9678 17.3745 11.9401ZM4.61938 6.39099C4.45466 6.1568 4.30257 5.92444 4.16384 5.69491C3.68303 4.89942 3.33417 4.09104 3.20522 3.32509C3.07589 2.55695 3.15548 1.72924 3.67856 1.05487C4.20122 0.381037 4.98605 0.0932499 5.76606 0.0203378C6.54438 -0.0524167 7.42083 0.074377 8.31916 0.331097C10.1221 0.846333 12.2247 1.94602 14.2352 3.4797C16.2456 5.01334 17.857 6.74683 18.8221 8.34346C18.8955 8.46498 18.9659 8.5868 19.0329 8.70872C19.2833 8.2296 19.535 7.7906 19.7833 7.39985C20.1953 6.75151 20.6286 6.18724 21.0654 5.7958C21.2834 5.6004 21.5419 5.41185 21.8366 5.2922C22.1391 5.16937 22.5367 5.09869 22.9549 5.24287C23.3733 5.38714 23.6416 5.6877 23.8026 5.97106C23.9592 6.24686 24.0442 6.55438 24.093 6.84202C24.1908 7.41824 24.1775 8.12769 24.0951 8.88973C23.9285 10.4304 23.4519 12.42 22.7195 14.5092C21.987 16.5984 21.1162 18.452 20.2832 19.7627C19.8712 20.411 19.4379 20.9753 19.0012 21.3668C18.7831 21.5622 18.5246 21.7507 18.2299 21.8704C17.9274 21.9932 17.5298 22.0639 17.1116 21.9197C16.6932 21.7754 16.4249 21.4749 16.2639 21.1915C16.1073 20.9157 16.0223 20.6082 15.9735 20.3205C15.8758 19.7443 15.889 19.0349 15.9714 18.2728C16.0672 17.3864 16.2657 16.3513 16.5565 15.2341C16.2785 15.3181 15.9884 15.39 15.6899 15.4508C13.8519 15.8248 11.4751 15.8192 8.97661 15.3869C6.47818 14.9546 4.23972 14.1616 2.63788 13.1923C1.8398 12.7094 1.15266 12.1544 0.680078 11.5359C0.206319 10.9158 -0.11112 10.1461 0.0364771 9.3072C0.184032 8.46851 0.7452 7.85146 1.40218 7.42744C2.05769 7.00438 2.89342 6.71302 3.80915 6.52667C4.06885 6.47382 4.33932 6.42855 4.61938 6.39099ZM14.3536 13.6129C12.9446 13.7708 11.2007 13.7183 9.32545 13.3939C7.01297 12.9937 5.02994 12.2716 3.69565 11.4642C3.02567 11.0588 2.56608 10.6601 2.30027 10.3122C2.03564 9.9658 2.02302 9.7562 2.04068 9.65578C2.05839 9.55513 2.14216 9.36166 2.50998 9.12428C2.87926 8.88594 3.44817 8.66504 4.21712 8.50856C4.79978 8.38999 5.46657 8.31458 6.19648 8.2887C6.94165 9.06627 7.80174 9.83473 8.75073 10.5587C10.6459 12.0044 12.6229 13.0645 14.3536 13.6129ZM19.484 12.7224C19.4111 12.9183 19.3391 13.1173 19.2683 13.3192C18.5713 15.3074 18.14 17.1424 17.9944 18.4891C17.9487 18.9117 17.9336 19.2644 17.9414 19.5462C18.1244 19.3296 18.3339 19.0428 18.5632 18.6821C19.2915 17.536 20.1012 15.8315 20.7982 13.8433C21.4952 11.8551 21.9265 10.0202 22.0721 8.67346C22.1178 8.25088 22.1329 7.89813 22.1251 7.61639C21.9421 7.83298 21.7326 8.11973 21.5033 8.4805C20.9436 9.36122 20.3358 10.5718 19.7681 11.9875C19.7127 12.2411 19.6208 12.4887 19.484 12.7224Z" fill="black" fill-opacity="0.25"/>
</svg>
