<svg width="139" height="327" viewBox="0 0 139 327" fill="none" xmlns="http://www.w3.org/2000/svg">
<path d="M49.3213 45.3905C49.3213 20.6396 69.386 0.574921 94.137 0.574921V0.574921C118.888 0.574921 138.953 20.6395 138.953 45.3905V61.7475C138.953 113.66 132.345 165.362 119.288 215.605L98.8902 294.097C93.9219 313.216 76.6633 326.562 56.9096 326.562V326.562C28.5251 326.562 7.78993 299.75 14.9291 272.278L29.6565 215.605C42.7133 165.361 49.3213 113.66 49.3213 61.7475V45.3905Z" fill="#C4C4C4"/>
<path d="M49.3213 45.3905C49.3213 20.6396 69.386 0.574921 94.137 0.574921V0.574921C118.888 0.574921 138.953 20.6395 138.953 45.3905V61.7475C138.953 113.66 132.345 165.362 119.288 215.605L98.8902 294.097C93.9219 313.216 76.6633 326.562 56.9096 326.562V326.562C28.5251 326.562 7.78993 299.75 14.9291 272.278L29.6565 215.605C42.7133 165.361 49.3213 113.66 49.3213 61.7475V45.3905Z" fill="url(#paint0_linear_143_620)"/>
<rect x="67.7388" y="47.2323" width="30.5592" height="30.5592" rx="15.2796" fill="white"/>
<rect x="76.47" y="50.5065" width="17.4624" height="17.4624" rx="8.7312" fill="url(#paint1_linear_143_620)"/>
<rect x="102.664" y="47.2323" width="30.5592" height="30.5592" rx="15.2796" fill="white"/>
<rect x="111.395" y="50.5065" width="17.4624" height="17.4624" rx="8.7312" fill="url(#paint2_linear_143_620)"/>
<path d="M121.342 90.9571L123.037 89.4653C123.861 88.7404 123.171 87.4051 122.095 87.6418C112.172 89.8252 101.886 89.8252 91.9632 87.6418C90.8874 87.4051 90.1979 88.7404 91.0216 89.4653L92.7165 90.9571C100.879 98.1413 113.179 98.1413 121.342 90.9571Z" fill="white"/>
<defs>
<linearGradient id="paint0_linear_143_620" x1="94.1369" y1="0.574921" x2="94.1369" y2="355.417" gradientUnits="userSpaceOnUse">
<stop stop-color="#00B2FF"/>
<stop offset="1" stop-color="#0066FF"/>
</linearGradient>
<linearGradient id="paint1_linear_143_620" x1="85.2012" y1="50.5065" x2="85.2012" y2="67.9689" gradientUnits="userSpaceOnUse">
<stop stop-color="#3D3D3D"/>
<stop offset="1"/>
</linearGradient>
<linearGradient id="paint2_linear_143_620" x1="120.126" y1="50.5065" x2="120.126" y2="67.9689" gradientUnits="userSpaceOnUse">
<stop stop-color="#3D3D3D"/>
<stop offset="1"/>
</linearGradient>
</defs>
</svg>
